<?xml version="1.0" encoding="UTF-8"?> <svg xmlns="http://www.w3.org/2000/svg" width="447" height="171" viewBox="0 0 447 171" fill="none"><path d="M343.955 157.047L339.099 152.196L333.761 148.67L327.606 145.013L325.326 138.278L322.042 132.637L319.215 125.631L323.31 119.138L329.6 114.48L330.664 114.197L327.929 113.654L321.508 116.083L316.775 113.702L317.379 106.555L318.524 100.039L320.962 92.2262L325.227 88.6523L327.262 81.5608L328.651 73.9686L330.781 66.462L334.347 59.5928L335.901 52.0149L337.08 50.0523L342.876 56.833L345.15 64.0842L346.234 71.0397L347.531 78.3727L351.857 74.775L357.092 69.7732L361.769 64.1834L366.843 58.9379L371.45 53.3189L376.4 47.8454L381.798 43.0257L385.463 36.4733L391.311 31.8015L396.135 26.4306L400.674 20.7634L409.439 10.9623L403.765 22.5884L402.129 29.3821L401.295 36.6241L398.638 43.394L396.208 50.0922L394.178 56.8741L392.044 63.5609L392.002 68.4129L395.899 65.9243L402.216 62.5952L409.287 61.1615L415.207 57.6689L422.755 54.2722L420.153 61.8461L420.282 69.0994L417.53 75.6168L415.836 82.3234L413.065 88.6948L411.649 95.5073L410.113 98.5544L410.6 98.1692L417.958 95.9898L425.082 94.3722L435.479 90.8364L428.567 98.6686L425.326 104.777L421.918 111.009L417.266 116.259L415.195 123.049L411.999 129.407L408.337 135.405L404.673 141.883L395.852 142.364L389.155 145.543L384.879 148.669L387.492 148.904L394.858 150.112L385.461 155.941L377.37 160.698L370.345 160.023L363.872 161.007L357.337 160.016L350.423 159.913L343.955 157.047ZM350.696 138.003L354.134 132.766L360.432 127.749L365.913 122.04L372.2 117.138L379.421 109.399L378.357 120.333L379.995 125.577L382.846 121.687L388.764 116.508L394.106 111.109L398.02 104.344L402.189 100.18L397.774 100.906L392.253 103.463L386.261 106.475L386.895 99.0662L387.354 92.2886L387.565 86.8162L383.937 91.4174L378.158 95.7502L373.323 100.823L368.792 106.219L362.412 113.042L363.697 102.789L362.987 95.919L358.564 100.974L352.607 106.036L346.845 111.175L341.377 116.571L335.881 121.842L334.048 124.95L336.519 123.475L343.144 120.684L350.887 119.618L351.049 126.748L350.273 133.334L350.696 138.003Z" fill="#3FE6DF"></path><path d="M395.43 53.7958L373.44 109.871L368.064 144.688H348.396L353.893 110.115L348.64 53.7958H367.698L367.82 83.9711L377.349 53.7958H395.43Z" fill="black"></path><path d="M307.754 145.91H306.777C301.402 145.91 297.411 143.914 294.805 139.923C292.28 135.851 291.506 130.802 292.483 124.775L300.18 75.6634C301.32 68.5777 303.601 62.958 307.021 58.8043C310.523 54.6506 316.062 52.5737 323.636 52.5737H326.935C334.916 52.5737 340.454 54.732 343.549 59.0486C346.644 63.2837 347.662 68.5369 346.604 74.8082L345.015 84.8259H325.957L327.545 74.8082C328.034 71.5504 327.097 69.9215 324.736 69.9215C323.432 69.9215 322.496 70.288 321.926 71.021C321.356 71.6726 320.948 72.8943 320.704 74.686L313.007 123.187C312.519 126.852 313.578 128.684 316.184 128.684C318.872 128.684 320.46 127.014 320.948 123.675L323.758 106.572H318.139L320.826 89.957H345.138L336.464 144.688H323.88C323.88 141.512 323.473 138.702 322.659 136.258C321.193 138.702 319.157 140.942 316.55 142.978C313.944 144.932 311.012 145.91 307.754 145.91Z" fill="black"></path><path d="M265.333 107.427L259.469 144.688H239.922L254.338 53.7958H283.658C288.3 53.7958 291.884 55.2211 294.409 58.0717C297.015 60.8408 297.951 64.7502 297.218 69.7998L295.264 81.7722C294.042 89.1837 290.744 93.7853 285.368 95.5771C290.011 98.1833 291.965 102.337 291.232 108.038L286.59 137.358C286.101 139.965 286.183 142.204 286.834 144.078L286.712 144.688H267.287C266.391 143.222 266.188 140.942 266.677 137.847L270.708 112.07C271.034 110.359 270.993 109.178 270.586 108.527C270.179 107.794 269.283 107.427 267.898 107.427H265.333ZM271.441 69.4333L268.143 90.3239H270.952C273.233 90.3239 274.536 88.8579 274.862 85.9259L276.816 73.587C277.305 70.8178 276.409 69.4333 274.129 69.4333H271.441Z" fill="black"></path><path d="M212.938 53.796H250.199L247.267 72.6097H229.553L227.11 88.125H241.403L238.349 107.427H223.933L221.123 125.508H239.571L236.517 144.689H198.522L212.938 53.796Z" fill="black"></path><path d="M162.709 53.7959H181.645L184.699 98.5092L191.785 53.7959H208.644L194.228 144.688H177.002L172.971 96.4323L165.274 144.688H148.293L162.709 53.7959Z" fill="black"></path><path d="M121.313 53.7958H158.574L155.642 72.6096H137.928L135.485 88.1249H149.778L146.724 107.427H132.308L129.498 125.508H147.946L144.892 144.688H106.897L121.313 53.7958Z" fill="black"></path><path d="M76.4313 53.796H117.968L115.036 72.6097H104.041L92.6796 144.689H73.1328L84.4944 72.6097H73.3771L76.4313 53.796Z" fill="black"></path><path d="M72.9753 53.7959L58.5595 144.688H39.0127L53.4285 53.7959H72.9753Z" fill="black"></path><path d="M14.4158 53.796H33.9626L22.601 125.386H38.7271L35.6729 144.689H0L14.4158 53.796Z" fill="black"></path></svg> 